<mxfile host="app.diagrams.net" modified="2021-01-17T21:41:03.771Z" agent="5.0 (Windows NT 10.0; Win64; x64) AppleWebKit/537.36 (KHTML, like Gecko) Chrome/87.0.4280.141 Safari/537.36" etag="IENPOBzeTpPkpdbLtVCf" version="14.2.4" type="github">
  <diagram id="9fL_rMQO10aEQAwBde1C" name="Page-1">
    <mxGraphModel dx="1359" dy="806" grid="1" gridSize="10" guides="1" tooltips="1" connect="1" arrows="1" fold="1" page="1" pageScale="1" pageWidth="850" pageHeight="1100" math="0" shadow="0">
      <root>
        <mxCell id="0" />
        <mxCell id="1" parent="0" />
        <mxCell id="hxuoUj-iliyVKGBQ55Zp-2" style="edgeStyle=orthogonalEdgeStyle;rounded=0;orthogonalLoop=1;jettySize=auto;html=1;exitX=1;exitY=0.5;exitDx=0;exitDy=0;" parent="1" source="hxuoUj-iliyVKGBQ55Zp-1" target="hxuoUj-iliyVKGBQ55Zp-3" edge="1">
          <mxGeometry relative="1" as="geometry">
            <mxPoint x="560" y="140" as="targetPoint" />
          </mxGeometry>
        </mxCell>
        <mxCell id="hxuoUj-iliyVKGBQ55Zp-25" style="edgeStyle=orthogonalEdgeStyle;rounded=0;orthogonalLoop=1;jettySize=auto;html=1;" parent="1" source="hxuoUj-iliyVKGBQ55Zp-1" target="hxuoUj-iliyVKGBQ55Zp-26" edge="1">
          <mxGeometry relative="1" as="geometry">
            <mxPoint x="420" y="170" as="targetPoint" />
          </mxGeometry>
        </mxCell>
        <mxCell id="hxuoUj-iliyVKGBQ55Zp-70" style="edgeStyle=orthogonalEdgeStyle;rounded=0;orthogonalLoop=1;jettySize=auto;html=1;entryX=1;entryY=0.5;entryDx=0;entryDy=0;" parent="1" source="hxuoUj-iliyVKGBQ55Zp-1" target="hxuoUj-iliyVKGBQ55Zp-57" edge="1">
          <mxGeometry relative="1" as="geometry" />
        </mxCell>
        <mxCell id="hxuoUj-iliyVKGBQ55Zp-1" value="whereami/" style="ellipse;whiteSpace=wrap;html=1;" parent="1" vertex="1">
          <mxGeometry x="360" y="45" width="120" height="80" as="geometry" />
        </mxCell>
        <mxCell id="hxuoUj-iliyVKGBQ55Zp-17" value="" style="edgeStyle=orthogonalEdgeStyle;rounded=0;orthogonalLoop=1;jettySize=auto;html=1;" parent="1" source="hxuoUj-iliyVKGBQ55Zp-3" target="hxuoUj-iliyVKGBQ55Zp-15" edge="1">
          <mxGeometry relative="1" as="geometry" />
        </mxCell>
        <mxCell id="hxuoUj-iliyVKGBQ55Zp-19" style="edgeStyle=orthogonalEdgeStyle;rounded=0;orthogonalLoop=1;jettySize=auto;html=1;entryX=0;entryY=0.5;entryDx=0;entryDy=0;" parent="1" source="hxuoUj-iliyVKGBQ55Zp-3" target="hxuoUj-iliyVKGBQ55Zp-7" edge="1">
          <mxGeometry relative="1" as="geometry" />
        </mxCell>
        <mxCell id="hxuoUj-iliyVKGBQ55Zp-20" style="edgeStyle=orthogonalEdgeStyle;rounded=0;orthogonalLoop=1;jettySize=auto;html=1;entryX=0;entryY=0.5;entryDx=0;entryDy=0;" parent="1" source="hxuoUj-iliyVKGBQ55Zp-3" target="hxuoUj-iliyVKGBQ55Zp-10" edge="1">
          <mxGeometry relative="1" as="geometry" />
        </mxCell>
        <mxCell id="hxuoUj-iliyVKGBQ55Zp-21" style="edgeStyle=orthogonalEdgeStyle;rounded=0;orthogonalLoop=1;jettySize=auto;html=1;entryX=0;entryY=0.5;entryDx=0;entryDy=0;" parent="1" source="hxuoUj-iliyVKGBQ55Zp-3" target="hxuoUj-iliyVKGBQ55Zp-5" edge="1">
          <mxGeometry relative="1" as="geometry" />
        </mxCell>
        <mxCell id="hxuoUj-iliyVKGBQ55Zp-22" style="edgeStyle=orthogonalEdgeStyle;rounded=0;orthogonalLoop=1;jettySize=auto;html=1;entryX=0;entryY=0.5;entryDx=0;entryDy=0;" parent="1" source="hxuoUj-iliyVKGBQ55Zp-3" target="hxuoUj-iliyVKGBQ55Zp-16" edge="1">
          <mxGeometry relative="1" as="geometry" />
        </mxCell>
        <mxCell id="hxuoUj-iliyVKGBQ55Zp-24" style="edgeStyle=orthogonalEdgeStyle;rounded=0;orthogonalLoop=1;jettySize=auto;html=1;entryX=0;entryY=0.5;entryDx=0;entryDy=0;" parent="1" source="hxuoUj-iliyVKGBQ55Zp-3" target="hxuoUj-iliyVKGBQ55Zp-23" edge="1">
          <mxGeometry relative="1" as="geometry" />
        </mxCell>
        <mxCell id="hxuoUj-iliyVKGBQ55Zp-46" style="edgeStyle=orthogonalEdgeStyle;rounded=0;orthogonalLoop=1;jettySize=auto;html=1;entryX=0;entryY=0.5;entryDx=0;entryDy=0;" parent="1" source="hxuoUj-iliyVKGBQ55Zp-3" target="hxuoUj-iliyVKGBQ55Zp-45" edge="1">
          <mxGeometry relative="1" as="geometry" />
        </mxCell>
        <mxCell id="hxuoUj-iliyVKGBQ55Zp-59" style="edgeStyle=orthogonalEdgeStyle;rounded=0;orthogonalLoop=1;jettySize=auto;html=1;entryX=0;entryY=0.5;entryDx=0;entryDy=0;" parent="1" source="hxuoUj-iliyVKGBQ55Zp-3" target="hxuoUj-iliyVKGBQ55Zp-58" edge="1">
          <mxGeometry relative="1" as="geometry" />
        </mxCell>
        <mxCell id="hxuoUj-iliyVKGBQ55Zp-3" value="User&lt;br&gt;" style="ellipse;whiteSpace=wrap;html=1;" parent="1" vertex="1">
          <mxGeometry x="510" y="55" width="80" height="60" as="geometry" />
        </mxCell>
        <mxCell id="hxuoUj-iliyVKGBQ55Zp-5" value="/user/register" style="rounded=0;whiteSpace=wrap;html=1;" parent="1" vertex="1">
          <mxGeometry x="630" y="10" width="90" height="30" as="geometry" />
        </mxCell>
        <mxCell id="hxuoUj-iliyVKGBQ55Zp-7" value="/user/login&lt;br&gt;" style="rounded=0;whiteSpace=wrap;html=1;" parent="1" vertex="1">
          <mxGeometry x="630" y="45" width="70" height="30" as="geometry" />
        </mxCell>
        <mxCell id="hxuoUj-iliyVKGBQ55Zp-10" value="/user/logout" style="rounded=0;whiteSpace=wrap;html=1;" parent="1" vertex="1">
          <mxGeometry x="630" y="80" width="80" height="30" as="geometry" />
        </mxCell>
        <mxCell id="hxuoUj-iliyVKGBQ55Zp-15" value="/user/delete" style="rounded=0;whiteSpace=wrap;html=1;" parent="1" vertex="1">
          <mxGeometry x="630" y="115" width="80" height="25" as="geometry" />
        </mxCell>
        <mxCell id="hxuoUj-iliyVKGBQ55Zp-16" value="/user/friends" style="rounded=0;whiteSpace=wrap;html=1;" parent="1" vertex="1">
          <mxGeometry x="630" y="150" width="80" height="30" as="geometry" />
        </mxCell>
        <mxCell id="hxuoUj-iliyVKGBQ55Zp-23" value="/user/addfriend" style="rounded=0;whiteSpace=wrap;html=1;" parent="1" vertex="1">
          <mxGeometry x="630" y="190" width="90" height="30" as="geometry" />
        </mxCell>
        <mxCell id="hxuoUj-iliyVKGBQ55Zp-56" style="edgeStyle=orthogonalEdgeStyle;rounded=0;orthogonalLoop=1;jettySize=auto;html=1;" parent="1" source="hxuoUj-iliyVKGBQ55Zp-26" target="hxuoUj-iliyVKGBQ55Zp-54" edge="1">
          <mxGeometry relative="1" as="geometry" />
        </mxCell>
        <mxCell id="hxuoUj-iliyVKGBQ55Zp-26" value="game&lt;br&gt;" style="ellipse;whiteSpace=wrap;html=1;" parent="1" vertex="1">
          <mxGeometry x="450" y="260" width="90" height="60" as="geometry" />
        </mxCell>
        <mxCell id="hxuoUj-iliyVKGBQ55Zp-38" value="map" style="swimlane;fontStyle=0;childLayout=stackLayout;horizontal=1;startSize=20;fillColor=none;horizontalStack=0;resizeParent=1;resizeParentMax=0;resizeLast=0;collapsible=1;marginBottom=0;" parent="1" vertex="1">
          <mxGeometry x="150" y="160" width="200" height="230" as="geometry">
            <mxRectangle x="570" y="270" width="90" height="20" as="alternateBounds" />
          </mxGeometry>
        </mxCell>
        <mxCell id="hxuoUj-iliyVKGBQ55Zp-39" value="id" style="text;strokeColor=none;fillColor=none;align=left;verticalAlign=top;spacingLeft=4;spacingRight=4;overflow=hidden;rotatable=0;points=[[0,0.5],[1,0.5]];portConstraint=eastwest;" parent="hxuoUj-iliyVKGBQ55Zp-38" vertex="1">
          <mxGeometry y="20" width="200" height="26" as="geometry" />
        </mxCell>
        <mxCell id="hxuoUj-iliyVKGBQ55Zp-40" value="name" style="text;strokeColor=none;fillColor=none;align=left;verticalAlign=top;spacingLeft=4;spacingRight=4;overflow=hidden;rotatable=0;points=[[0,0.5],[1,0.5]];portConstraint=eastwest;" parent="hxuoUj-iliyVKGBQ55Zp-38" vertex="1">
          <mxGeometry y="46" width="200" height="26" as="geometry" />
        </mxCell>
        <mxCell id="hxuoUj-iliyVKGBQ55Zp-41" value="creator" style="text;strokeColor=none;fillColor=none;align=left;verticalAlign=top;spacingLeft=4;spacingRight=4;overflow=hidden;rotatable=0;points=[[0,0.5],[1,0.5]];portConstraint=eastwest;" parent="hxuoUj-iliyVKGBQ55Zp-38" vertex="1">
          <mxGeometry y="72" width="200" height="28" as="geometry" />
        </mxCell>
        <mxCell id="hxuoUj-iliyVKGBQ55Zp-42" value="createDate" style="text;strokeColor=none;fillColor=none;align=left;verticalAlign=top;spacingLeft=4;spacingRight=4;overflow=hidden;rotatable=0;points=[[0,0.5],[1,0.5]];portConstraint=eastwest;" parent="hxuoUj-iliyVKGBQ55Zp-38" vertex="1">
          <mxGeometry y="100" width="200" height="26" as="geometry" />
        </mxCell>
        <mxCell id="hxuoUj-iliyVKGBQ55Zp-43" value="numOfLocations&#xa;" style="text;strokeColor=none;fillColor=none;align=left;verticalAlign=top;spacingLeft=4;spacingRight=4;overflow=hidden;rotatable=0;points=[[0,0.5],[1,0.5]];portConstraint=eastwest;" parent="hxuoUj-iliyVKGBQ55Zp-38" vertex="1">
          <mxGeometry y="126" width="200" height="26" as="geometry" />
        </mxCell>
        <mxCell id="hxuoUj-iliyVKGBQ55Zp-44" value="locations[]" style="text;strokeColor=none;fillColor=none;align=left;verticalAlign=top;spacingLeft=4;spacingRight=4;overflow=hidden;rotatable=0;points=[[0,0.5],[1,0.5]];portConstraint=eastwest;" parent="hxuoUj-iliyVKGBQ55Zp-38" vertex="1">
          <mxGeometry y="152" width="200" height="26" as="geometry" />
        </mxCell>
        <mxCell id="hxuoUj-iliyVKGBQ55Zp-53" value="top100scores[]&#xa;" style="text;strokeColor=none;fillColor=none;align=left;verticalAlign=top;spacingLeft=4;spacingRight=4;overflow=hidden;rotatable=0;points=[[0,0.5],[1,0.5]];portConstraint=eastwest;" parent="hxuoUj-iliyVKGBQ55Zp-38" vertex="1">
          <mxGeometry y="178" width="200" height="26" as="geometry" />
        </mxCell>
        <mxCell id="hxuoUj-iliyVKGBQ55Zp-79" value="usersWhoPlayed[user][topScore]" style="text;strokeColor=none;fillColor=none;align=left;verticalAlign=top;spacingLeft=4;spacingRight=4;overflow=hidden;rotatable=0;points=[[0,0.5],[1,0.5]];portConstraint=eastwest;" parent="hxuoUj-iliyVKGBQ55Zp-38" vertex="1">
          <mxGeometry y="204" width="200" height="26" as="geometry" />
        </mxCell>
        <mxCell id="hxuoUj-iliyVKGBQ55Zp-45" value="/user/historygames" style="rounded=0;whiteSpace=wrap;html=1;" parent="1" vertex="1">
          <mxGeometry x="630" y="230" width="105" height="40" as="geometry" />
        </mxCell>
        <mxCell id="hxuoUj-iliyVKGBQ55Zp-68" style="edgeStyle=orthogonalEdgeStyle;rounded=0;orthogonalLoop=1;jettySize=auto;html=1;entryX=0.5;entryY=0;entryDx=0;entryDy=0;" parent="1" source="hxuoUj-iliyVKGBQ55Zp-54" target="hxuoUj-iliyVKGBQ55Zp-61" edge="1">
          <mxGeometry relative="1" as="geometry" />
        </mxCell>
        <mxCell id="hxuoUj-iliyVKGBQ55Zp-54" value="/{gameInstanceID}" style="rounded=0;whiteSpace=wrap;html=1;" parent="1" vertex="1">
          <mxGeometry x="520" y="370" width="110" height="40" as="geometry" />
        </mxCell>
        <mxCell id="hxuoUj-iliyVKGBQ55Zp-71" style="edgeStyle=orthogonalEdgeStyle;rounded=0;orthogonalLoop=1;jettySize=auto;html=1;" parent="1" source="hxuoUj-iliyVKGBQ55Zp-57" target="hxuoUj-iliyVKGBQ55Zp-38" edge="1">
          <mxGeometry relative="1" as="geometry" />
        </mxCell>
        <mxCell id="hxuoUj-iliyVKGBQ55Zp-74" style="edgeStyle=orthogonalEdgeStyle;rounded=0;orthogonalLoop=1;jettySize=auto;html=1;entryX=1;entryY=0.5;entryDx=0;entryDy=0;" parent="1" source="hxuoUj-iliyVKGBQ55Zp-57" target="hxuoUj-iliyVKGBQ55Zp-73" edge="1">
          <mxGeometry relative="1" as="geometry" />
        </mxCell>
        <mxCell id="hxuoUj-iliyVKGBQ55Zp-77" style="edgeStyle=orthogonalEdgeStyle;rounded=0;orthogonalLoop=1;jettySize=auto;html=1;entryX=1;entryY=0.5;entryDx=0;entryDy=0;" parent="1" source="hxuoUj-iliyVKGBQ55Zp-57" target="hxuoUj-iliyVKGBQ55Zp-75" edge="1">
          <mxGeometry relative="1" as="geometry" />
        </mxCell>
        <mxCell id="hxuoUj-iliyVKGBQ55Zp-78" style="edgeStyle=orthogonalEdgeStyle;rounded=0;orthogonalLoop=1;jettySize=auto;html=1;entryX=1;entryY=0.75;entryDx=0;entryDy=0;" parent="1" source="hxuoUj-iliyVKGBQ55Zp-57" target="hxuoUj-iliyVKGBQ55Zp-76" edge="1">
          <mxGeometry relative="1" as="geometry" />
        </mxCell>
        <mxCell id="hxuoUj-iliyVKGBQ55Zp-57" value="map" style="ellipse;whiteSpace=wrap;html=1;" parent="1" vertex="1">
          <mxGeometry x="210" y="50" width="120" height="80" as="geometry" />
        </mxCell>
        <mxCell id="hxuoUj-iliyVKGBQ55Zp-60" style="edgeStyle=orthogonalEdgeStyle;rounded=0;orthogonalLoop=1;jettySize=auto;html=1;entryX=1;entryY=0.5;entryDx=0;entryDy=0;" parent="1" source="hxuoUj-iliyVKGBQ55Zp-58" target="hxuoUj-iliyVKGBQ55Zp-54" edge="1">
          <mxGeometry relative="1" as="geometry" />
        </mxCell>
        <mxCell id="hxuoUj-iliyVKGBQ55Zp-58" value="/user/createnewgame" style="rounded=0;whiteSpace=wrap;html=1;" parent="1" vertex="1">
          <mxGeometry x="630" y="280" width="120" height="40" as="geometry" />
        </mxCell>
        <mxCell id="hxuoUj-iliyVKGBQ55Zp-61" value="GameInstance" style="swimlane;fontStyle=0;childLayout=stackLayout;horizontal=1;startSize=26;fillColor=none;horizontalStack=0;resizeParent=1;resizeParentMax=0;resizeLast=0;collapsible=1;marginBottom=0;" parent="1" vertex="1">
          <mxGeometry x="487.5" y="450" width="175" height="208" as="geometry" />
        </mxCell>
        <mxCell id="hxuoUj-iliyVKGBQ55Zp-62" value="gameInstanceID" style="text;strokeColor=none;fillColor=none;align=left;verticalAlign=top;spacingLeft=4;spacingRight=4;overflow=hidden;rotatable=0;points=[[0,0.5],[1,0.5]];portConstraint=eastwest;" parent="hxuoUj-iliyVKGBQ55Zp-61" vertex="1">
          <mxGeometry y="26" width="175" height="26" as="geometry" />
        </mxCell>
        <mxCell id="hxuoUj-iliyVKGBQ55Zp-63" value="map[id]" style="text;strokeColor=none;fillColor=none;align=left;verticalAlign=top;spacingLeft=4;spacingRight=4;overflow=hidden;rotatable=0;points=[[0,0.5],[1,0.5]];portConstraint=eastwest;" parent="hxuoUj-iliyVKGBQ55Zp-61" vertex="1">
          <mxGeometry y="52" width="175" height="26" as="geometry" />
        </mxCell>
        <mxCell id="hxuoUj-iliyVKGBQ55Zp-64" value="admin/creator" style="text;strokeColor=none;fillColor=none;align=left;verticalAlign=top;spacingLeft=4;spacingRight=4;overflow=hidden;rotatable=0;points=[[0,0.5],[1,0.5]];portConstraint=eastwest;" parent="hxuoUj-iliyVKGBQ55Zp-61" vertex="1">
          <mxGeometry y="78" width="175" height="26" as="geometry" />
        </mxCell>
        <mxCell id="hxuoUj-iliyVKGBQ55Zp-65" value="createDate" style="text;strokeColor=none;fillColor=none;align=left;verticalAlign=top;spacingLeft=4;spacingRight=4;overflow=hidden;rotatable=0;points=[[0,0.5],[1,0.5]];portConstraint=eastwest;" parent="hxuoUj-iliyVKGBQ55Zp-61" vertex="1">
          <mxGeometry y="104" width="175" height="26" as="geometry" />
        </mxCell>
        <mxCell id="hxuoUj-iliyVKGBQ55Zp-66" value="currentPlayers" style="text;strokeColor=none;fillColor=none;align=left;verticalAlign=top;spacingLeft=4;spacingRight=4;overflow=hidden;rotatable=0;points=[[0,0.5],[1,0.5]];portConstraint=eastwest;" parent="hxuoUj-iliyVKGBQ55Zp-61" vertex="1">
          <mxGeometry y="130" width="175" height="26" as="geometry" />
        </mxCell>
        <mxCell id="hxuoUj-iliyVKGBQ55Zp-67" value="endGameInstance" style="text;strokeColor=none;fillColor=none;align=left;verticalAlign=top;spacingLeft=4;spacingRight=4;overflow=hidden;rotatable=0;points=[[0,0.5],[1,0.5]];portConstraint=eastwest;" parent="hxuoUj-iliyVKGBQ55Zp-61" vertex="1">
          <mxGeometry y="156" width="175" height="26" as="geometry" />
        </mxCell>
        <mxCell id="hxuoUj-iliyVKGBQ55Zp-69" value="gamePrivacy (public/private)" style="text;strokeColor=none;fillColor=none;align=left;verticalAlign=top;spacingLeft=4;spacingRight=4;overflow=hidden;rotatable=0;points=[[0,0.5],[1,0.5]];portConstraint=eastwest;" parent="hxuoUj-iliyVKGBQ55Zp-61" vertex="1">
          <mxGeometry y="182" width="175" height="26" as="geometry" />
        </mxCell>
        <mxCell id="hxuoUj-iliyVKGBQ55Zp-73" value="/createcustom" style="rounded=0;whiteSpace=wrap;html=1;" parent="1" vertex="1">
          <mxGeometry x="30" y="20" width="120" height="35" as="geometry" />
        </mxCell>
        <mxCell id="hxuoUj-iliyVKGBQ55Zp-75" value="/newByRegionRandom" style="rounded=0;whiteSpace=wrap;html=1;" parent="1" vertex="1">
          <mxGeometry x="30" y="75" width="130" height="30" as="geometry" />
        </mxCell>
        <mxCell id="hxuoUj-iliyVKGBQ55Zp-76" value="/newRandom" style="rounded=0;whiteSpace=wrap;html=1;" parent="1" vertex="1">
          <mxGeometry x="35" y="120" width="120" height="30" as="geometry" />
        </mxCell>
      </root>
    </mxGraphModel>
  </diagram>
</mxfile>
